<mxfile host="app.diagrams.net" agent="Mozilla/5.0 (Macintosh; Intel Mac OS X 10_15_7) AppleWebKit/537.36 (KHTML, like Gecko) Chrome/134.0.0.0 Safari/537.36" version="26.2.14">
  <diagram name="第 1 页" id="vqICqT-RoDOMQb0D1O3F">
    <mxGraphModel dx="970" dy="656" grid="1" gridSize="10" guides="1" tooltips="1" connect="1" arrows="1" fold="1" page="1" pageScale="1" pageWidth="827" pageHeight="1169" math="0" shadow="0">
      <root>
        <mxCell id="0" />
        <mxCell id="1" parent="0" />
        <mxCell id="1qPDmFH-AW9d_BpErikt-81" value="" style="rounded=0;whiteSpace=wrap;html=1;fillColor=#f5f5f5;fontColor=#333333;strokeColor=#666666;" vertex="1" parent="1">
          <mxGeometry x="290" y="90" width="550" height="440" as="geometry" />
        </mxCell>
        <mxCell id="1qPDmFH-AW9d_BpErikt-56" style="edgeStyle=orthogonalEdgeStyle;rounded=0;orthogonalLoop=1;jettySize=auto;html=1;entryX=0;entryY=0.5;entryDx=0;entryDy=0;" edge="1" parent="1" source="1qPDmFH-AW9d_BpErikt-5" target="1qPDmFH-AW9d_BpErikt-52">
          <mxGeometry relative="1" as="geometry" />
        </mxCell>
        <mxCell id="1qPDmFH-AW9d_BpErikt-5" value="&lt;font style=&quot;font-size: 18px;&quot;&gt;地址匹配&lt;/font&gt;" style="rounded=0;whiteSpace=wrap;html=1;fillColor=#fff2cc;strokeColor=#d6b656;" vertex="1" parent="1">
          <mxGeometry x="340" y="140" width="210" height="80" as="geometry" />
        </mxCell>
        <mxCell id="1qPDmFH-AW9d_BpErikt-22" value="" style="group" vertex="1" connectable="0" parent="1">
          <mxGeometry x="100" y="240" width="170" height="80" as="geometry" />
        </mxCell>
        <mxCell id="1qPDmFH-AW9d_BpErikt-6" value="" style="group" vertex="1" connectable="0" parent="1qPDmFH-AW9d_BpErikt-22">
          <mxGeometry x="70" width="100" height="80" as="geometry" />
        </mxCell>
        <mxCell id="1qPDmFH-AW9d_BpErikt-1" value="addr" style="rounded=0;whiteSpace=wrap;html=1;fillColor=#dae8fc;strokeColor=#6c8ebf;" vertex="1" parent="1qPDmFH-AW9d_BpErikt-6">
          <mxGeometry width="100" height="20" as="geometry" />
        </mxCell>
        <mxCell id="1qPDmFH-AW9d_BpErikt-2" value="addrh" style="rounded=0;whiteSpace=wrap;html=1;fillColor=#dae8fc;strokeColor=#6c8ebf;" vertex="1" parent="1qPDmFH-AW9d_BpErikt-6">
          <mxGeometry y="20" width="100" height="20" as="geometry" />
        </mxCell>
        <mxCell id="1qPDmFH-AW9d_BpErikt-3" value="cfg" style="rounded=0;whiteSpace=wrap;html=1;fillColor=#dae8fc;strokeColor=#6c8ebf;" vertex="1" parent="1qPDmFH-AW9d_BpErikt-6">
          <mxGeometry y="40" width="100" height="20" as="geometry" />
        </mxCell>
        <mxCell id="1qPDmFH-AW9d_BpErikt-4" value="mask" style="rounded=0;whiteSpace=wrap;html=1;fillColor=#dae8fc;strokeColor=#6c8ebf;" vertex="1" parent="1qPDmFH-AW9d_BpErikt-6">
          <mxGeometry y="60" width="100" height="20" as="geometry" />
        </mxCell>
        <mxCell id="1qPDmFH-AW9d_BpErikt-12" value="" style="shape=curlyBracket;whiteSpace=wrap;html=1;rounded=1;labelPosition=left;verticalLabelPosition=middle;align=right;verticalAlign=middle;" vertex="1" parent="1qPDmFH-AW9d_BpErikt-22">
          <mxGeometry x="50" width="10" height="80" as="geometry" />
        </mxCell>
        <mxCell id="1qPDmFH-AW9d_BpErikt-13" value="entry 0" style="text;html=1;align=center;verticalAlign=middle;resizable=0;points=[];autosize=1;strokeColor=none;fillColor=none;" vertex="1" parent="1qPDmFH-AW9d_BpErikt-22">
          <mxGeometry y="25" width="60" height="30" as="geometry" />
        </mxCell>
        <mxCell id="1qPDmFH-AW9d_BpErikt-23" value="" style="group" vertex="1" connectable="0" parent="1">
          <mxGeometry x="100" y="320" width="170" height="80" as="geometry" />
        </mxCell>
        <mxCell id="1qPDmFH-AW9d_BpErikt-24" value="" style="group" vertex="1" connectable="0" parent="1qPDmFH-AW9d_BpErikt-23">
          <mxGeometry x="70" width="100" height="80" as="geometry" />
        </mxCell>
        <mxCell id="1qPDmFH-AW9d_BpErikt-25" value="addr" style="rounded=0;whiteSpace=wrap;html=1;fillColor=#dae8fc;strokeColor=#6c8ebf;" vertex="1" parent="1qPDmFH-AW9d_BpErikt-24">
          <mxGeometry width="100" height="20" as="geometry" />
        </mxCell>
        <mxCell id="1qPDmFH-AW9d_BpErikt-26" value="addrh" style="rounded=0;whiteSpace=wrap;html=1;fillColor=#dae8fc;strokeColor=#6c8ebf;" vertex="1" parent="1qPDmFH-AW9d_BpErikt-24">
          <mxGeometry y="20" width="100" height="20" as="geometry" />
        </mxCell>
        <mxCell id="1qPDmFH-AW9d_BpErikt-27" value="cfg" style="rounded=0;whiteSpace=wrap;html=1;fillColor=#dae8fc;strokeColor=#6c8ebf;" vertex="1" parent="1qPDmFH-AW9d_BpErikt-24">
          <mxGeometry y="40" width="100" height="20" as="geometry" />
        </mxCell>
        <mxCell id="1qPDmFH-AW9d_BpErikt-28" value="mask" style="rounded=0;whiteSpace=wrap;html=1;fillColor=#dae8fc;strokeColor=#6c8ebf;" vertex="1" parent="1qPDmFH-AW9d_BpErikt-24">
          <mxGeometry y="60" width="100" height="20" as="geometry" />
        </mxCell>
        <mxCell id="1qPDmFH-AW9d_BpErikt-29" value="" style="shape=curlyBracket;whiteSpace=wrap;html=1;rounded=1;labelPosition=left;verticalLabelPosition=middle;align=right;verticalAlign=middle;" vertex="1" parent="1qPDmFH-AW9d_BpErikt-23">
          <mxGeometry x="50" width="10" height="80" as="geometry" />
        </mxCell>
        <mxCell id="1qPDmFH-AW9d_BpErikt-30" value="entry 1" style="text;html=1;align=center;verticalAlign=middle;resizable=0;points=[];autosize=1;strokeColor=none;fillColor=none;" vertex="1" parent="1qPDmFH-AW9d_BpErikt-23">
          <mxGeometry y="25" width="60" height="30" as="geometry" />
        </mxCell>
        <mxCell id="1qPDmFH-AW9d_BpErikt-32" value="......" style="text;html=1;align=center;verticalAlign=middle;resizable=0;points=[];autosize=1;strokeColor=none;fillColor=none;fontSize=24;" vertex="1" parent="1">
          <mxGeometry x="190" y="390" width="60" height="40" as="geometry" />
        </mxCell>
        <mxCell id="1qPDmFH-AW9d_BpErikt-33" value="" style="group" vertex="1" connectable="0" parent="1">
          <mxGeometry x="100" y="430" width="170" height="80" as="geometry" />
        </mxCell>
        <mxCell id="1qPDmFH-AW9d_BpErikt-34" value="" style="group" vertex="1" connectable="0" parent="1qPDmFH-AW9d_BpErikt-33">
          <mxGeometry x="70" width="100" height="80" as="geometry" />
        </mxCell>
        <mxCell id="1qPDmFH-AW9d_BpErikt-35" value="addr" style="rounded=0;whiteSpace=wrap;html=1;fillColor=#dae8fc;strokeColor=#6c8ebf;" vertex="1" parent="1qPDmFH-AW9d_BpErikt-34">
          <mxGeometry width="100" height="20" as="geometry" />
        </mxCell>
        <mxCell id="1qPDmFH-AW9d_BpErikt-36" value="addrh" style="rounded=0;whiteSpace=wrap;html=1;fillColor=#dae8fc;strokeColor=#6c8ebf;" vertex="1" parent="1qPDmFH-AW9d_BpErikt-34">
          <mxGeometry y="20" width="100" height="20" as="geometry" />
        </mxCell>
        <mxCell id="1qPDmFH-AW9d_BpErikt-37" value="cfg" style="rounded=0;whiteSpace=wrap;html=1;fillColor=#dae8fc;strokeColor=#6c8ebf;" vertex="1" parent="1qPDmFH-AW9d_BpErikt-34">
          <mxGeometry y="40" width="100" height="20" as="geometry" />
        </mxCell>
        <mxCell id="1qPDmFH-AW9d_BpErikt-38" value="mask" style="rounded=0;whiteSpace=wrap;html=1;fillColor=#dae8fc;strokeColor=#6c8ebf;" vertex="1" parent="1qPDmFH-AW9d_BpErikt-34">
          <mxGeometry y="60" width="100" height="20" as="geometry" />
        </mxCell>
        <mxCell id="1qPDmFH-AW9d_BpErikt-39" value="" style="shape=curlyBracket;whiteSpace=wrap;html=1;rounded=1;labelPosition=left;verticalLabelPosition=middle;align=right;verticalAlign=middle;" vertex="1" parent="1qPDmFH-AW9d_BpErikt-33">
          <mxGeometry x="50" width="10" height="80" as="geometry" />
        </mxCell>
        <mxCell id="1qPDmFH-AW9d_BpErikt-40" value="entry k-1" style="text;html=1;align=center;verticalAlign=middle;resizable=0;points=[];autosize=1;strokeColor=none;fillColor=none;" vertex="1" parent="1qPDmFH-AW9d_BpErikt-33">
          <mxGeometry x="-10" y="25" width="70" height="30" as="geometry" />
        </mxCell>
        <mxCell id="1qPDmFH-AW9d_BpErikt-41" style="edgeStyle=orthogonalEdgeStyle;rounded=0;orthogonalLoop=1;jettySize=auto;html=1;entryX=0.25;entryY=1;entryDx=0;entryDy=0;" edge="1" parent="1" source="1qPDmFH-AW9d_BpErikt-1" target="1qPDmFH-AW9d_BpErikt-5">
          <mxGeometry relative="1" as="geometry" />
        </mxCell>
        <mxCell id="1qPDmFH-AW9d_BpErikt-42" style="edgeStyle=orthogonalEdgeStyle;rounded=0;orthogonalLoop=1;jettySize=auto;html=1;entryX=0.25;entryY=1;entryDx=0;entryDy=0;" edge="1" parent="1" source="1qPDmFH-AW9d_BpErikt-2" target="1qPDmFH-AW9d_BpErikt-5">
          <mxGeometry relative="1" as="geometry" />
        </mxCell>
        <mxCell id="1qPDmFH-AW9d_BpErikt-43" style="edgeStyle=orthogonalEdgeStyle;rounded=0;orthogonalLoop=1;jettySize=auto;html=1;entryX=0.25;entryY=1;entryDx=0;entryDy=0;" edge="1" parent="1" source="1qPDmFH-AW9d_BpErikt-4" target="1qPDmFH-AW9d_BpErikt-5">
          <mxGeometry relative="1" as="geometry" />
        </mxCell>
        <mxCell id="1qPDmFH-AW9d_BpErikt-46" style="edgeStyle=orthogonalEdgeStyle;rounded=0;orthogonalLoop=1;jettySize=auto;html=1;entryX=0.5;entryY=1;entryDx=0;entryDy=0;" edge="1" parent="1" source="1qPDmFH-AW9d_BpErikt-25" target="1qPDmFH-AW9d_BpErikt-5">
          <mxGeometry relative="1" as="geometry" />
        </mxCell>
        <mxCell id="1qPDmFH-AW9d_BpErikt-47" style="edgeStyle=orthogonalEdgeStyle;rounded=0;orthogonalLoop=1;jettySize=auto;html=1;entryX=0.5;entryY=1;entryDx=0;entryDy=0;" edge="1" parent="1" source="1qPDmFH-AW9d_BpErikt-26" target="1qPDmFH-AW9d_BpErikt-5">
          <mxGeometry relative="1" as="geometry" />
        </mxCell>
        <mxCell id="1qPDmFH-AW9d_BpErikt-48" style="edgeStyle=orthogonalEdgeStyle;rounded=0;orthogonalLoop=1;jettySize=auto;html=1;entryX=0.5;entryY=1;entryDx=0;entryDy=0;" edge="1" parent="1" source="1qPDmFH-AW9d_BpErikt-28" target="1qPDmFH-AW9d_BpErikt-5">
          <mxGeometry relative="1" as="geometry" />
        </mxCell>
        <mxCell id="1qPDmFH-AW9d_BpErikt-49" style="edgeStyle=orthogonalEdgeStyle;rounded=0;orthogonalLoop=1;jettySize=auto;html=1;entryX=0.75;entryY=1;entryDx=0;entryDy=0;" edge="1" parent="1" source="1qPDmFH-AW9d_BpErikt-35" target="1qPDmFH-AW9d_BpErikt-5">
          <mxGeometry relative="1" as="geometry" />
        </mxCell>
        <mxCell id="1qPDmFH-AW9d_BpErikt-50" style="edgeStyle=orthogonalEdgeStyle;rounded=0;orthogonalLoop=1;jettySize=auto;html=1;entryX=0.75;entryY=1;entryDx=0;entryDy=0;" edge="1" parent="1" source="1qPDmFH-AW9d_BpErikt-36" target="1qPDmFH-AW9d_BpErikt-5">
          <mxGeometry relative="1" as="geometry" />
        </mxCell>
        <mxCell id="1qPDmFH-AW9d_BpErikt-51" style="edgeStyle=orthogonalEdgeStyle;rounded=0;orthogonalLoop=1;jettySize=auto;html=1;entryX=0.75;entryY=1;entryDx=0;entryDy=0;" edge="1" parent="1" source="1qPDmFH-AW9d_BpErikt-38" target="1qPDmFH-AW9d_BpErikt-5">
          <mxGeometry relative="1" as="geometry" />
        </mxCell>
        <mxCell id="1qPDmFH-AW9d_BpErikt-72" value="" style="edgeStyle=orthogonalEdgeStyle;rounded=0;orthogonalLoop=1;jettySize=auto;html=1;" edge="1" parent="1" source="1qPDmFH-AW9d_BpErikt-52" target="1qPDmFH-AW9d_BpErikt-71">
          <mxGeometry relative="1" as="geometry" />
        </mxCell>
        <mxCell id="1qPDmFH-AW9d_BpErikt-52" value="MUX" style="shape=trapezoid;perimeter=trapezoidPerimeter;whiteSpace=wrap;html=1;fixedSize=1;rotation=90;fillColor=#ffe6cc;strokeColor=#d79b00;" vertex="1" parent="1">
          <mxGeometry x="540" y="345" width="130" height="50" as="geometry" />
        </mxCell>
        <mxCell id="1qPDmFH-AW9d_BpErikt-53" style="edgeStyle=orthogonalEdgeStyle;rounded=0;orthogonalLoop=1;jettySize=auto;html=1;entryX=0.25;entryY=1;entryDx=0;entryDy=0;jumpStyle=arc;" edge="1" parent="1" source="1qPDmFH-AW9d_BpErikt-3" target="1qPDmFH-AW9d_BpErikt-52">
          <mxGeometry relative="1" as="geometry">
            <Array as="points">
              <mxPoint x="540" y="290" />
              <mxPoint x="540" y="338" />
              <mxPoint x="580" y="338" />
            </Array>
          </mxGeometry>
        </mxCell>
        <mxCell id="1qPDmFH-AW9d_BpErikt-54" style="edgeStyle=orthogonalEdgeStyle;rounded=0;orthogonalLoop=1;jettySize=auto;html=1;jumpStyle=arc;" edge="1" parent="1" source="1qPDmFH-AW9d_BpErikt-27" target="1qPDmFH-AW9d_BpErikt-52">
          <mxGeometry relative="1" as="geometry" />
        </mxCell>
        <mxCell id="1qPDmFH-AW9d_BpErikt-55" style="edgeStyle=orthogonalEdgeStyle;rounded=0;orthogonalLoop=1;jettySize=auto;html=1;entryX=0.75;entryY=1;entryDx=0;entryDy=0;jumpStyle=arc;" edge="1" parent="1" source="1qPDmFH-AW9d_BpErikt-37" target="1qPDmFH-AW9d_BpErikt-52">
          <mxGeometry relative="1" as="geometry">
            <Array as="points">
              <mxPoint x="540" y="480" />
              <mxPoint x="540" y="403" />
            </Array>
          </mxGeometry>
        </mxCell>
        <mxCell id="1qPDmFH-AW9d_BpErikt-57" value="表项索引" style="text;html=1;align=center;verticalAlign=middle;resizable=0;points=[];autosize=1;strokeColor=none;fillColor=none;" vertex="1" parent="1">
          <mxGeometry x="610" y="240" width="70" height="30" as="geometry" />
        </mxCell>
        <mxCell id="1qPDmFH-AW9d_BpErikt-58" value="" style="shape=waypoint;sketch=0;size=6;pointerEvents=1;points=[];fillColor=none;resizable=0;rotatable=0;perimeter=centerPerimeter;snapToPoint=1;" vertex="1" parent="1">
          <mxGeometry x="382" y="240" width="20" height="20" as="geometry" />
        </mxCell>
        <mxCell id="1qPDmFH-AW9d_BpErikt-59" value="" style="shape=waypoint;sketch=0;size=6;pointerEvents=1;points=[];fillColor=none;resizable=0;rotatable=0;perimeter=centerPerimeter;snapToPoint=1;" vertex="1" parent="1">
          <mxGeometry x="382" y="260" width="20" height="20" as="geometry" />
        </mxCell>
        <mxCell id="1qPDmFH-AW9d_BpErikt-60" value="" style="shape=waypoint;sketch=0;size=6;pointerEvents=1;points=[];fillColor=none;resizable=0;rotatable=0;perimeter=centerPerimeter;snapToPoint=1;" vertex="1" parent="1">
          <mxGeometry x="435" y="320" width="20" height="20" as="geometry" />
        </mxCell>
        <mxCell id="1qPDmFH-AW9d_BpErikt-63" value="" style="shape=waypoint;sketch=0;size=6;pointerEvents=1;points=[];fillColor=none;resizable=0;rotatable=0;perimeter=centerPerimeter;snapToPoint=1;" vertex="1" parent="1">
          <mxGeometry x="435" y="340" width="20" height="20" as="geometry" />
        </mxCell>
        <mxCell id="1qPDmFH-AW9d_BpErikt-65" value="" style="shape=waypoint;sketch=0;size=6;pointerEvents=1;points=[];fillColor=none;resizable=0;rotatable=0;perimeter=centerPerimeter;snapToPoint=1;" vertex="1" parent="1">
          <mxGeometry x="488" y="430" width="20" height="20" as="geometry" />
        </mxCell>
        <mxCell id="1qPDmFH-AW9d_BpErikt-67" value="" style="shape=waypoint;sketch=0;size=6;pointerEvents=1;points=[];fillColor=none;resizable=0;rotatable=0;perimeter=centerPerimeter;snapToPoint=1;" vertex="1" parent="1">
          <mxGeometry x="488" y="450" width="20" height="20" as="geometry" />
        </mxCell>
        <mxCell id="1qPDmFH-AW9d_BpErikt-70" style="edgeStyle=orthogonalEdgeStyle;rounded=0;orthogonalLoop=1;jettySize=auto;html=1;entryX=0;entryY=0.5;entryDx=0;entryDy=0;" edge="1" parent="1" source="1qPDmFH-AW9d_BpErikt-69" target="1qPDmFH-AW9d_BpErikt-5">
          <mxGeometry relative="1" as="geometry" />
        </mxCell>
        <mxCell id="1qPDmFH-AW9d_BpErikt-75" style="edgeStyle=orthogonalEdgeStyle;rounded=0;orthogonalLoop=1;jettySize=auto;html=1;exitX=1;exitY=0.489;exitDx=0;exitDy=0;exitPerimeter=0;entryX=0.25;entryY=0;entryDx=0;entryDy=0;" edge="1" parent="1" source="1qPDmFH-AW9d_BpErikt-69" target="1qPDmFH-AW9d_BpErikt-71">
          <mxGeometry relative="1" as="geometry">
            <Array as="points">
              <mxPoint x="320" y="180" />
              <mxPoint x="320" y="120" />
              <mxPoint x="730" y="120" />
            </Array>
          </mxGeometry>
        </mxCell>
        <mxCell id="1qPDmFH-AW9d_BpErikt-69" value="addr/size" style="text;html=1;align=center;verticalAlign=middle;resizable=0;points=[];autosize=1;strokeColor=none;fillColor=none;" vertex="1" parent="1">
          <mxGeometry x="130" y="165" width="70" height="30" as="geometry" />
        </mxCell>
        <mxCell id="1qPDmFH-AW9d_BpErikt-79" style="edgeStyle=orthogonalEdgeStyle;rounded=0;orthogonalLoop=1;jettySize=auto;html=1;" edge="1" parent="1" source="1qPDmFH-AW9d_BpErikt-71">
          <mxGeometry relative="1" as="geometry">
            <mxPoint x="910" y="370" as="targetPoint" />
          </mxGeometry>
        </mxCell>
        <mxCell id="1qPDmFH-AW9d_BpErikt-71" value="&lt;font style=&quot;font-size: 16px;&quot;&gt;权限检查&lt;/font&gt;" style="whiteSpace=wrap;html=1;fillColor=#f8cecc;strokeColor=#b85450;" vertex="1" parent="1">
          <mxGeometry x="700" y="340" width="120" height="60" as="geometry" />
        </mxCell>
        <mxCell id="1qPDmFH-AW9d_BpErikt-74" value="cfg" style="text;html=1;align=center;verticalAlign=middle;resizable=0;points=[];autosize=1;strokeColor=none;fillColor=none;" vertex="1" parent="1">
          <mxGeometry x="640" y="340" width="40" height="30" as="geometry" />
        </mxCell>
        <mxCell id="1qPDmFH-AW9d_BpErikt-78" style="edgeStyle=orthogonalEdgeStyle;rounded=0;orthogonalLoop=1;jettySize=auto;html=1;entryX=0.75;entryY=0;entryDx=0;entryDy=0;" edge="1" parent="1" source="1qPDmFH-AW9d_BpErikt-77" target="1qPDmFH-AW9d_BpErikt-71">
          <mxGeometry relative="1" as="geometry" />
        </mxCell>
        <mxCell id="1qPDmFH-AW9d_BpErikt-77" value="WR" style="text;html=1;align=center;verticalAlign=middle;resizable=0;points=[];autosize=1;strokeColor=none;fillColor=none;" vertex="1" parent="1">
          <mxGeometry x="770" y="238" width="40" height="30" as="geometry" />
        </mxCell>
        <mxCell id="1qPDmFH-AW9d_BpErikt-80" value="&lt;font style=&quot;font-size: 16px;&quot;&gt;检查结果&lt;/font&gt;" style="text;html=1;align=center;verticalAlign=middle;resizable=0;points=[];autosize=1;strokeColor=none;fillColor=none;" vertex="1" parent="1">
          <mxGeometry x="900" y="355" width="90" height="30" as="geometry" />
        </mxCell>
        <mxCell id="1qPDmFH-AW9d_BpErikt-83" value="IOPMPChecker" style="text;html=1;align=center;verticalAlign=middle;resizable=0;points=[];autosize=1;strokeColor=none;fillColor=none;fontSize=20;" vertex="1" parent="1">
          <mxGeometry x="660" y="470" width="160" height="40" as="geometry" />
        </mxCell>
        <mxCell id="1qPDmFH-AW9d_BpErikt-84" value="" style="shape=waypoint;sketch=0;size=6;pointerEvents=1;points=[];fillColor=none;resizable=0;rotatable=0;perimeter=centerPerimeter;snapToPoint=1;" vertex="1" parent="1">
          <mxGeometry x="310" y="170" width="20" height="20" as="geometry" />
        </mxCell>
      </root>
    </mxGraphModel>
  </diagram>
</mxfile>
